<mxfile host="65bd71144e" pages="5">
    <diagram id="6SpWArDQqeLU_MTk-7Mu" name="Bausteine">
        <mxGraphModel dx="788" dy="862" grid="1" gridSize="10" guides="1" tooltips="1" connect="1" arrows="1" fold="1" page="1" pageScale="1" pageWidth="827" pageHeight="1169" math="0" shadow="0">
            <root>
                <mxCell id="-4G3-lRVrjwXLM01tNym-0"/>
                <mxCell id="-4G3-lRVrjwXLM01tNym-1" parent="-4G3-lRVrjwXLM01tNym-0"/>
                <mxCell id="-4G3-lRVrjwXLM01tNym-2" value="Baustein" style="fontStyle=0;sketch=1;" parent="-4G3-lRVrjwXLM01tNym-1" vertex="1">
                    <mxGeometry x="160" y="40" width="120" height="60" as="geometry"/>
                </mxCell>
                <mxCell id="-4G3-lRVrjwXLM01tNym-3" value="«Anmerkung»&#10;Spezialisierter&#10;Baustein" style="fontStyle=0;sketch=1;" parent="-4G3-lRVrjwXLM01tNym-1" vertex="1">
                    <mxGeometry x="320" y="40" width="120" height="60" as="geometry"/>
                </mxCell>
                <mxCell id="saFPJxOIxq3ThxF4y0T1-0" value="Kaffeemaschine" style="fontStyle=0;sketch=1;" parent="-4G3-lRVrjwXLM01tNym-1" vertex="1">
                    <mxGeometry x="160" y="160" width="120" height="60" as="geometry"/>
                </mxCell>
                <mxCell id="saFPJxOIxq3ThxF4y0T1-2" value="«system»&#10;Kaffeemaschine" style="fontStyle=0;sketch=1;" parent="-4G3-lRVrjwXLM01tNym-1" vertex="1">
                    <mxGeometry x="320" y="160" width="120" height="60" as="geometry"/>
                </mxCell>
                <mxCell id="saFPJxOIxq3ThxF4y0T1-3" value="«component»&#10;Brüheinheit" style="fontStyle=0;sketch=1;" parent="-4G3-lRVrjwXLM01tNym-1" vertex="1">
                    <mxGeometry x="480" y="160" width="120" height="60" as="geometry"/>
                </mxCell>
                <mxCell id="saFPJxOIxq3ThxF4y0T1-5" value="" style="line;strokeWidth=2;html=1;" parent="-4G3-lRVrjwXLM01tNym-1" vertex="1">
                    <mxGeometry x="30" y="130" width="570" height="10" as="geometry"/>
                </mxCell>
                <mxCell id="saFPJxOIxq3ThxF4y0T1-6" value="Darstellungselement" style="text;html=1;align=center;verticalAlign=middle;resizable=0;points=[];autosize=1;strokeColor=none;fillColor=none;" parent="-4G3-lRVrjwXLM01tNym-1" vertex="1">
                    <mxGeometry x="20" y="60" width="120" height="20" as="geometry"/>
                </mxCell>
                <mxCell id="saFPJxOIxq3ThxF4y0T1-7" value="Beispiele" style="text;html=1;align=center;verticalAlign=middle;resizable=0;points=[];autosize=1;strokeColor=none;fillColor=none;" parent="-4G3-lRVrjwXLM01tNym-1" vertex="1">
                    <mxGeometry x="50" y="180" width="60" height="20" as="geometry"/>
                </mxCell>
            </root>
        </mxGraphModel>
    </diagram>
    <diagram id="hyuSgr0WiIHA1JmV8kCH" name="Beziehungen">
        <mxGraphModel dx="788" dy="862" grid="1" gridSize="10" guides="1" tooltips="1" connect="1" arrows="1" fold="1" page="1" pageScale="1" pageWidth="827" pageHeight="1169" math="0" shadow="0">
            <root>
                <mxCell id="0"/>
                <mxCell id="1" parent="0"/>
                <mxCell id="tQEC8WSHALwLQWzmmIx--4" style="edgeStyle=orthogonalEdgeStyle;rounded=0;orthogonalLoop=1;jettySize=auto;html=1;endArrow=none;endFill=0;sketch=1;" parent="1" source="tQEC8WSHALwLQWzmmIx--1" target="tQEC8WSHALwLQWzmmIx--2" edge="1">
                    <mxGeometry relative="1" as="geometry"/>
                </mxCell>
                <mxCell id="tQEC8WSHALwLQWzmmIx--1" value="A" style="fontStyle=0;sketch=1;" parent="1" vertex="1">
                    <mxGeometry x="40" y="40" width="120" height="60" as="geometry"/>
                </mxCell>
                <mxCell id="tQEC8WSHALwLQWzmmIx--2" value="B" style="fontStyle=0;sketch=1;" parent="1" vertex="1">
                    <mxGeometry x="350" y="40" width="120" height="60" as="geometry"/>
                </mxCell>
                <mxCell id="tQEC8WSHALwLQWzmmIx--5" style="edgeStyle=orthogonalEdgeStyle;rounded=0;orthogonalLoop=1;jettySize=auto;html=1;endArrow=open;endFill=0;sketch=1;" parent="1" source="tQEC8WSHALwLQWzmmIx--6" target="tQEC8WSHALwLQWzmmIx--7" edge="1">
                    <mxGeometry relative="1" as="geometry"/>
                </mxCell>
                <mxCell id="tQEC8WSHALwLQWzmmIx--6" value="A" style="fontStyle=0;sketch=1;" parent="1" vertex="1">
                    <mxGeometry x="40" y="140" width="120" height="60" as="geometry"/>
                </mxCell>
                <mxCell id="tQEC8WSHALwLQWzmmIx--7" value="B" style="fontStyle=0;sketch=1;" parent="1" vertex="1">
                    <mxGeometry x="350" y="140" width="120" height="60" as="geometry"/>
                </mxCell>
                <mxCell id="tQEC8WSHALwLQWzmmIx--8" style="edgeStyle=orthogonalEdgeStyle;rounded=0;orthogonalLoop=1;jettySize=auto;html=1;endArrow=block;endFill=0;sketch=1;" parent="1" source="tQEC8WSHALwLQWzmmIx--9" target="tQEC8WSHALwLQWzmmIx--10" edge="1">
                    <mxGeometry relative="1" as="geometry"/>
                </mxCell>
                <mxCell id="tQEC8WSHALwLQWzmmIx--9" value="A" style="fontStyle=0;sketch=1;" parent="1" vertex="1">
                    <mxGeometry x="40" y="240" width="120" height="60" as="geometry"/>
                </mxCell>
                <mxCell id="tQEC8WSHALwLQWzmmIx--10" value="B" style="fontStyle=0;sketch=1;" parent="1" vertex="1">
                    <mxGeometry x="350" y="240" width="120" height="60" as="geometry"/>
                </mxCell>
                <mxCell id="tQEC8WSHALwLQWzmmIx--11" value="Beziehung" style="text;html=1;align=center;verticalAlign=middle;resizable=0;points=[];autosize=1;strokeColor=none;fillColor=none;sketch=1;" parent="1" vertex="1">
                    <mxGeometry x="225" y="40" width="70" height="20" as="geometry"/>
                </mxCell>
                <mxCell id="tQEC8WSHALwLQWzmmIx--12" value="Abhängigkeit" style="text;html=1;align=center;verticalAlign=middle;resizable=0;points=[];autosize=1;strokeColor=none;fillColor=none;sketch=1;" parent="1" vertex="1">
                    <mxGeometry x="220" y="140" width="80" height="20" as="geometry"/>
                </mxCell>
                <mxCell id="tQEC8WSHALwLQWzmmIx--13" value="Generalisierung" style="text;html=1;align=center;verticalAlign=middle;resizable=0;points=[];autosize=1;strokeColor=none;fillColor=none;sketch=1;" parent="1" vertex="1">
                    <mxGeometry x="160" y="240" width="100" height="20" as="geometry"/>
                </mxCell>
                <mxCell id="2" value="(1)" style="text;html=1;align=center;verticalAlign=middle;resizable=0;points=[];autosize=1;strokeColor=none;fillColor=none;" parent="1" vertex="1">
                    <mxGeometry y="60" width="30" height="20" as="geometry"/>
                </mxCell>
                <mxCell id="3" value="(2)" style="text;html=1;align=center;verticalAlign=middle;resizable=0;points=[];autosize=1;strokeColor=none;fillColor=none;" parent="1" vertex="1">
                    <mxGeometry y="160" width="30" height="20" as="geometry"/>
                </mxCell>
                <mxCell id="4" value="(3)" style="text;html=1;align=center;verticalAlign=middle;resizable=0;points=[];autosize=1;strokeColor=none;fillColor=none;" parent="1" vertex="1">
                    <mxGeometry y="260" width="30" height="20" as="geometry"/>
                </mxCell>
                <mxCell id="_lPIJ9rqNrqW0O2TjrsG-4" value="" style="triangle;whiteSpace=wrap;html=1;labelBackgroundColor=none;fillColor=none;" parent="1" vertex="1">
                    <mxGeometry x="260" y="247" width="7.5" height="10" as="geometry"/>
                </mxCell>
                <mxCell id="_lPIJ9rqNrqW0O2TjrsG-5" value="Spezialisierung" style="text;html=1;align=center;verticalAlign=middle;resizable=0;points=[];autosize=1;strokeColor=none;fillColor=none;sketch=1;" parent="1" vertex="1">
                    <mxGeometry x="250" y="275" width="100" height="20" as="geometry"/>
                </mxCell>
                <mxCell id="_lPIJ9rqNrqW0O2TjrsG-6" value="" style="triangle;whiteSpace=wrap;html=1;labelBackgroundColor=none;fillColor=none;rotation=-180;" parent="1" vertex="1">
                    <mxGeometry x="247.5" y="280" width="7.5" height="10" as="geometry"/>
                </mxCell>
            </root>
        </mxGraphModel>
    </diagram>
    <diagram id="nc7KJOILMubtcIken1JN" name="Linientypen">
        <mxGraphModel dx="788" dy="862" grid="1" gridSize="10" guides="1" tooltips="1" connect="1" arrows="1" fold="1" page="1" pageScale="1" pageWidth="827" pageHeight="1169" math="0" shadow="0">
            <root>
                <mxCell id="SLO1tjqI-dcfGzirqSLg-0"/>
                <mxCell id="SLO1tjqI-dcfGzirqSLg-1" parent="SLO1tjqI-dcfGzirqSLg-0"/>
                <mxCell id="SLO1tjqI-dcfGzirqSLg-4" style="edgeStyle=none;html=1;endArrow=open;endFill=0;dashed=1;" parent="SLO1tjqI-dcfGzirqSLg-1" edge="1">
                    <mxGeometry relative="1" as="geometry">
                        <mxPoint x="360" y="160" as="targetPoint"/>
                        <mxPoint x="200" y="160" as="sourcePoint"/>
                    </mxGeometry>
                </mxCell>
                <mxCell id="SLO1tjqI-dcfGzirqSLg-5" style="edgeStyle=none;html=1;endArrow=open;endFill=0;dashed=1;dashPattern=1 2;" parent="SLO1tjqI-dcfGzirqSLg-1" edge="1">
                    <mxGeometry relative="1" as="geometry">
                        <mxPoint x="360" y="200" as="targetPoint"/>
                        <mxPoint x="200" y="200" as="sourcePoint"/>
                    </mxGeometry>
                </mxCell>
                <mxCell id="SLO1tjqI-dcfGzirqSLg-6" style="edgeStyle=none;html=1;endArrow=open;endFill=0;" parent="SLO1tjqI-dcfGzirqSLg-1" edge="1">
                    <mxGeometry relative="1" as="geometry">
                        <mxPoint x="360" y="120" as="targetPoint"/>
                        <mxPoint x="200" y="120" as="sourcePoint"/>
                    </mxGeometry>
                </mxCell>
                <mxCell id="7AQeOsZp_5HjaEyZO-XM-0" value="wichtig" style="text;html=1;align=center;verticalAlign=middle;resizable=0;points=[];autosize=1;strokeColor=none;fillColor=none;" parent="SLO1tjqI-dcfGzirqSLg-1" vertex="1">
                    <mxGeometry x="260" y="100" width="50" height="20" as="geometry"/>
                </mxCell>
                <mxCell id="7AQeOsZp_5HjaEyZO-XM-1" value="weniger wichtig" style="text;html=1;align=center;verticalAlign=middle;resizable=0;points=[];autosize=1;strokeColor=none;fillColor=none;" parent="SLO1tjqI-dcfGzirqSLg-1" vertex="1">
                    <mxGeometry x="235" y="140" width="100" height="20" as="geometry"/>
                </mxCell>
                <mxCell id="7AQeOsZp_5HjaEyZO-XM-2" value="am wenigstens wichtig" style="text;html=1;align=center;verticalAlign=middle;resizable=0;points=[];autosize=1;strokeColor=none;fillColor=none;" parent="SLO1tjqI-dcfGzirqSLg-1" vertex="1">
                    <mxGeometry x="210" y="180" width="140" height="20" as="geometry"/>
                </mxCell>
            </root>
        </mxGraphModel>
    </diagram>
    <diagram id="TpZbXN7ePDEGUqBczbGp" name="Kommentare">
        <mxGraphModel dx="788" dy="862" grid="1" gridSize="10" guides="1" tooltips="1" connect="1" arrows="1" fold="1" page="1" pageScale="1" pageWidth="827" pageHeight="1169" math="0" shadow="0">
            <root>
                <mxCell id="BaANsM_p4ynuOqFI4TbU-0"/>
                <mxCell id="BaANsM_p4ynuOqFI4TbU-1" parent="BaANsM_p4ynuOqFI4TbU-0"/>
                <mxCell id="v9h9awSJf8UKfyQ0-ewf-1" style="rounded=0;orthogonalLoop=1;jettySize=auto;html=1;dashed=1;endArrow=none;endFill=0;" parent="BaANsM_p4ynuOqFI4TbU-1" source="Y9zYl6nLSutehHqbV2qx-0" target="v9h9awSJf8UKfyQ0-ewf-0" edge="1">
                    <mxGeometry relative="1" as="geometry"/>
                </mxCell>
                <mxCell id="Y9zYl6nLSutehHqbV2qx-0" value="Das ist ein Baustein." style="shape=note2;boundedLbl=1;whiteSpace=wrap;html=1;size=25;verticalAlign=top;align=center;fillColor=#fff2cc;strokeColor=#d6b656;" parent="BaANsM_p4ynuOqFI4TbU-1" vertex="1">
                    <mxGeometry x="240" y="120" width="120" height="60" as="geometry"/>
                </mxCell>
                <mxCell id="v9h9awSJf8UKfyQ0-ewf-0" value="A" style="fontStyle=0;sketch=1;" parent="BaANsM_p4ynuOqFI4TbU-1" vertex="1">
                    <mxGeometry x="110" y="200" width="120" height="60" as="geometry"/>
                </mxCell>
            </root>
        </mxGraphModel>
    </diagram>
    <diagram id="24nHH4q-jO2i1AlrXaKB" name="Kommentaralternativen">
        <mxGraphModel dx="788" dy="862" grid="1" gridSize="10" guides="1" tooltips="1" connect="1" arrows="1" fold="1" page="1" pageScale="1" pageWidth="827" pageHeight="1169" math="0" shadow="0">
            <root>
                <mxCell id="hEhRI-NGa6rjN35J6ckc-0"/>
                <mxCell id="hEhRI-NGa6rjN35J6ckc-1" parent="hEhRI-NGa6rjN35J6ckc-0"/>
                <mxCell id="GAeHHRa1dC3iIzcnDtRS-0" value="" style="html=1;verticalLabelPosition=bottom;align=center;labelBackgroundColor=#ffffff;verticalAlign=top;strokeWidth=2;strokeColor=#d6b656;shadow=0;dashed=0;shape=mxgraph.ios7.icons.message;fillColor=#fff2cc;" parent="hEhRI-NGa6rjN35J6ckc-1" vertex="1">
                    <mxGeometry x="296" y="530" width="150" height="50" as="geometry"/>
                </mxCell>
                <mxCell id="GAeHHRa1dC3iIzcnDtRS-1" value="A" style="fontStyle=0;sketch=1;" parent="hEhRI-NGa6rjN35J6ckc-1" vertex="1">
                    <mxGeometry x="356" y="580" width="120" height="60" as="geometry"/>
                </mxCell>
                <mxCell id="GAeHHRa1dC3iIzcnDtRS-2" value="&amp;lt;&amp;lt;Kommentar&amp;gt;&amp;gt;&lt;br&gt;Das ist ein Baustein." style="rounded=1;whiteSpace=wrap;html=1;fillColor=#fff2cc;strokeColor=#d6b656;" parent="hEhRI-NGa6rjN35J6ckc-1" vertex="1">
                    <mxGeometry x="200" y="650" width="140" height="60" as="geometry"/>
                </mxCell>
                <mxCell id="GAeHHRa1dC3iIzcnDtRS-3" value="&lt;span style=&quot;&quot;&gt;Das ist ein Baustein&lt;/span&gt;" style="text;html=1;align=center;verticalAlign=middle;resizable=0;points=[];autosize=1;strokeColor=none;fillColor=none;labelBackgroundColor=none;" parent="hEhRI-NGa6rjN35J6ckc-1" vertex="1">
                    <mxGeometry x="306" y="542" width="120" height="20" as="geometry"/>
                </mxCell>
                <mxCell id="GAeHHRa1dC3iIzcnDtRS-4" style="rounded=0;orthogonalLoop=1;jettySize=auto;html=1;dashed=1;endArrow=none;endFill=0;exitX=0;exitY=1;exitDx=0;exitDy=0;" parent="hEhRI-NGa6rjN35J6ckc-1" source="GAeHHRa1dC3iIzcnDtRS-1" target="GAeHHRa1dC3iIzcnDtRS-2" edge="1">
                    <mxGeometry relative="1" as="geometry">
                        <mxPoint x="137.25" y="570" as="sourcePoint"/>
                        <mxPoint x="104.75" y="590" as="targetPoint"/>
                    </mxGeometry>
                </mxCell>
            </root>
        </mxGraphModel>
    </diagram>
</mxfile>